<?xml version="1.0" encoding="UTF-8" standalone="no" ?>
<!DOCTYPE svg PUBLIC "-//W3C//DTD SVG 1.1//EN" "http://www.w3.org/Graphics/SVG/1.1/DTD/svg11.dtd">
<svg xmlns="http://www.w3.org/2000/svg" xmlns:xlink="http://www.w3.org/1999/xlink" version="1.1" width="1080" height="1080" viewBox="0 0 1080 1080" xml:space="preserve">
<desc>Created with Fabric.js 4.2.0</desc>
<defs>
</defs>
<rect x="0" y="0" width="100%" height="100%" fill="transparent"></rect>
<g transform="matrix(1 0 0 1 540 540)" id="d65a6e1a-14cc-4d8d-a5e9-b5eb0bed7f90"  >
</g>
<g transform="matrix(1 0 0 1 540 540)" id="c8aeb83a-e081-4435-b241-1e1484faf9d3"  >
<rect style="stroke: none; stroke-width: 1; stroke-dasharray: none; stroke-linecap: butt; stroke-dashoffset: 0; stroke-linejoin: miter; stroke-miterlimit: 4; fill: rgb(3,81,78); fill-rule: nonzero; opacity: 1;" vector-effect="non-scaling-stroke"  x="-540" y="-540" rx="0" ry="0" width="1080" height="1080" />
</g>
<g transform="matrix(1.14 0 0 1.14 1828.97 471.97)"  >
<g style="" vector-effect="non-scaling-stroke"   >
		<g transform="matrix(1 0 0 1 -1189.59 0)"  >
<rect style="stroke: none; stroke-width: 1; stroke-dasharray: none; stroke-linecap: butt; stroke-dashoffset: 0; stroke-linejoin: miter; stroke-miterlimit: 4; fill: rgb(255,255,255); fill-rule: nonzero; opacity: 1; visibility: hidden;" vector-effect="non-scaling-stroke"  x="-540" y="-540" rx="0" ry="0" width="1080" height="1080" />
</g>
		<g transform="matrix(8.06 0 0 9.29 -1198.15 -18.56)"  >
<path style="stroke: none; stroke-width: 1; stroke-dasharray: none; stroke-linecap: butt; stroke-dashoffset: 0; stroke-linejoin: miter; stroke-miterlimit: 4; fill: rgb(3,81,78); fill-rule: nonzero; opacity: 1;" vector-effect="non-scaling-stroke"  transform=" translate(-36.66, -40.16)" d="M 56.7 4 L 0.5 4 L 0.5 59.7 C 0.5 68.5 7.3 76 16.1 76.30000000000001 C 25.3 76.70000000000002 32.900000000000006 69.20000000000002 32.900000000000006 60.10000000000001 L 32.900000000000006 36.4 L 56.300000000000004 36.4 C 65.10000000000001 36.4 72.5 29.5 72.80000000000001 20.799999999999997 C 73.2 11.5 65.9 4 56.7 4 z" stroke-linecap="round" />
</g>
		<g transform="matrix(8.06 0 0 9.29 -1039.83 162.99)"  >
<circle style="stroke: none; stroke-width: 1; stroke-dasharray: none; stroke-linecap: butt; stroke-dashoffset: 0; stroke-linejoin: miter; stroke-miterlimit: 4; fill: rgb(133,229,198); fill-rule: nonzero; opacity: 1;" vector-effect="non-scaling-stroke"  cx="0" cy="0" r="16.6" />
</g>
		<g transform="matrix(8.06 0 0 9.29 1190.38 -23.27)"  >
<rect style="stroke: none; stroke-width: 1; stroke-dasharray: none; stroke-linecap: butt; stroke-dashoffset: 0; stroke-linejoin: miter; stroke-miterlimit: 4; fill: rgb(3,81,78); fill-rule: nonzero; opacity: 1;" vector-effect="non-scaling-stroke"  x="-6.6" y="-35.65" rx="0" ry="0" width="13.2" height="71.3" />
</g>
		<g transform="matrix(8.06 0 0 9.29 1476.91 152.32)"  >
<path style="stroke: none; stroke-width: 1; stroke-dasharray: none; stroke-linecap: butt; stroke-dashoffset: 0; stroke-linejoin: miter; stroke-miterlimit: 4; fill: rgb(3,81,78); fill-rule: nonzero; opacity: 1;" vector-effect="non-scaling-stroke"  transform=" translate(-368.55, -58.55)" d="M 381.5 24.6 L 369.7 54.8 L 356 24.599999999999998 L 341.8 24.599999999999998 L 363.1 71.89999999999999 L 360.70000000000005 78.1 C 360.20000000000005 79.39999999999999 359.70000000000005 79.69999999999999 359.6 79.8 C 359.40000000000003 79.89999999999999 358.8 80.2 357.20000000000005 80.2 L 345.80000000000007 80.2 L 345.80000000000007 92.5 L 358.6000000000001 92.5 C 360.80000000000007 92.5 362.7000000000001 92.3 364.2000000000001 91.8 C 365.9000000000001 91.3 367.4000000000001 90.3 368.7000000000001 89 C 369.9000000000001 87.7 371.0000000000001 86 371.9000000000001 83.7 L 395.30000000000007 24.6 L 381.5 24.6 z" stroke-linecap="round" />
</g>
		<g transform="matrix(8.06 0 0 9.29 -476.84 -36.28)"  >
<path style="stroke: none; stroke-width: 1; stroke-dasharray: none; stroke-linecap: butt; stroke-dashoffset: 0; stroke-linejoin: miter; stroke-miterlimit: 4; fill: rgb(3,81,78); fill-rule: nonzero; opacity: 1;" vector-effect="non-scaling-stroke"  transform=" translate(-126.15, -38.25)" d="M 119.1 11.8 L 119.1 24.5 L 106 24.5 L 106 36.6 L 119.1 36.6 L 119.1 75.30000000000001 L 132.29999999999998 75.30000000000001 L 132.29999999999998 36.6 L 144.7 36.6 L 144.7 24.5 L 132.39999999999998 24.5 L 132.39999999999998 16.4 C 132.39999999999998 15.299999999999999 133.29999999999998 14.399999999999999 134.39999999999998 14.399999999999999 L 146.29999999999998 14.399999999999999 L 146.29999999999998 1.2 L 129.7 1.2 C 123.8 1.2 119.1 5.9 119.1 11.8 z" stroke-linecap="round" />
</g>
		<g transform="matrix(8.06 0 0 9.29 523.4 71.96)"  >
<path style="stroke: none; stroke-width: 1; stroke-dasharray: none; stroke-linecap: butt; stroke-dashoffset: 0; stroke-linejoin: miter; stroke-miterlimit: 4; fill: rgb(3,81,78); fill-rule: nonzero; opacity: 1;" vector-effect="non-scaling-stroke"  transform=" translate(-250.25, -49.9)" d="M 245.8 36.8 C 246.9 36 248.5 35.5 250.5 35.5 L 251.4 35.5 C 253.5 35.5 255 36 256.1 37.1 C 257.1 38.1 257.70000000000005 39.300000000000004 258 40.7 L 271.3 40.7 C 271.2 35.7 269.40000000000003 31.6 265.8 28.400000000000002 L 265.8 28.400000000000002 C 262.2 25.200000000000003 257.2 23.6 250.8 23.6 C 245.5 23.6 240.8 25 237.10000000000002 27.8 C 233.10000000000002 30.8 231.10000000000002 34.9 231.10000000000002 40 C 231.10000000000002 48.2 236.3 53.4 246.40000000000003 55.4 L 253.10000000000002 56.699999999999996 C 257.6 57.599999999999994 257.6 59.599999999999994 257.6 60.49999999999999 C 257.6 61.49999999999999 257.1 62.29999999999999 256.1 62.99999999999999 C 254.8 63.89999999999999 253.20000000000002 64.3 251.3 64.3 L 250.4 64.3 C 248.1 64.3 246.20000000000002 63.8 244.70000000000002 62.699999999999996 C 243.50000000000003 61.9 242.8 60.699999999999996 242.50000000000003 59.199999999999996 L 229.20000000000002 59.199999999999996 L 229.20000000000002 59.49999999999999 C 229.60000000000002 64.39999999999999 231.60000000000002 68.39999999999999 235.10000000000002 71.39999999999999 C 238.70000000000002 74.6 243.90000000000003 76.19999999999999 250.3 76.19999999999999 C 256.1 76.19999999999999 261 74.79999999999998 264.8 71.89999999999999 C 268.8 68.89999999999999 270.8 64.89999999999999 270.8 60.099999999999994 C 270.8 49.49999999999999 262.90000000000003 45.699999999999996 256.2 44.39999999999999 L 248.89999999999998 42.89999999999999 C 244.2 41.99999999999999 244.2 39.99999999999999 244.2 39.099999999999994 C 244.3 38.6 244.5 37.7 245.8 36.8 z" stroke-linecap="round" />
</g>
		<g transform="matrix(8.06 0 0 9.29 147.01 72.89)"  >
<path style="stroke: none; stroke-width: 1; stroke-dasharray: none; stroke-linecap: butt; stroke-dashoffset: 0; stroke-linejoin: miter; stroke-miterlimit: 4; fill: rgb(3,81,78); fill-rule: nonzero; opacity: 1;" vector-effect="non-scaling-stroke"  transform=" translate(-203.55, -50)" d="M 216.7 26.9 C 213.2 24.7 209 23.599999999999998 204.1 23.599999999999998 C 199.2 23.599999999999998 194.79999999999998 24.7 191.2 26.999999999999996 C 187.6 29.199999999999996 184.7 32.4 182.79999999999998 36.4 C 180.89999999999998 40.4 179.89999999999998 44.9 179.89999999999998 50 C 179.89999999999998 55.3 180.99999999999997 60.1 183.2 64 C 185.39999999999998 68 188.39999999999998 71.1 192.1 73.2 C 195.79999999999998 75.3 199.79999999999998 76.4 204.1 76.4 C 208.2 76.4 211.9 75.7 215 74.2 C 218.2 72.8 220.8 70.7 222.8 68.2 C 224.8 65.7 226.20000000000002 62.7 227 59.400000000000006 L 213.1 59.400000000000006 C 212.6 60.900000000000006 211.79999999999998 62.2 210.4 63.300000000000004 C 209 64.4 207.1 65 204.9 65 L 204.1 65 C 202.4 65 200.7 64.5 199.2 63.6 C 197.6 62.7 196.29999999999998 61.4 195.2 59.800000000000004 C 194.2 58.300000000000004 193.6 56.6 193.39999999999998 54.7 L 227 54.7 L 227 54.2 C 227.1 52 227.2 50.5 227.2 49.5 C 227.2 44.6 226.29999999999998 40.1 224.6 36.2 C 222.8 32.2 220.2 29.1 216.7 26.9 z M 193.4 43.5 C 193.6 41.9 194 40.4 194.8 39.2 C 195.70000000000002 37.800000000000004 196.9 36.800000000000004 198.3 36.1 C 199.70000000000002 35.4 201.4 35 203.10000000000002 35 L 203.90000000000003 35 C 205.60000000000002 35 207.20000000000005 35.4 208.70000000000005 36.1 C 210.10000000000005 36.800000000000004 211.30000000000004 37.9 212.20000000000005 39.2 C 213.00000000000006 40.400000000000006 213.50000000000006 41.900000000000006 213.60000000000005 43.5 L 193.4 43.5 z" stroke-linecap="round" />
</g>
		<g transform="matrix(8.06 0 0 9.29 911.5 -23.27)"  >
<path style="stroke: none; stroke-width: 1; stroke-dasharray: none; stroke-linecap: butt; stroke-dashoffset: 0; stroke-linejoin: miter; stroke-miterlimit: 4; fill: rgb(3,81,78); fill-rule: nonzero; opacity: 1;" vector-effect="non-scaling-stroke"  transform=" translate(-298.4, -39.65)" d="M 303.9 23.5 C 300.7 23.5 297.7 24.3 294.9 25.8 C 292.2 27.3 290 29.400000000000002 288.5 32 L 288.5 7 L 288.5 4.1 L 288.5 4 L 275.3 4 L 275.3 4.1 L 275.3 6.8999999999999995 L 275.3 75.30000000000001 L 288.5 75.30000000000001 L 288.5 47.1 C 288.5 44.7 289 42.6 290 40.6 C 291 38.6 292.3 37.1 294 35.9 C 295.7 34.699999999999996 297.5 34.199999999999996 299.5 34.199999999999996 L 300.3 34.199999999999996 C 302.8 34.199999999999996 304.8 35.099999999999994 306.2 36.8 C 307.59999999999997 38.5 308.3 41 308.3 44.3 L 308.3 75.3 L 321.5 75.3 L 321.5 42.8 C 321.5 36.9 320 32.3 317.1 28.699999999999996 C 314.1 25.2 309.7 23.5 303.9 23.5 z" stroke-linecap="round" />
</g>
		<g transform="matrix(8.06 0 0 9.29 -166.13 71.02)"  >
<path style="stroke: none; stroke-width: 1; stroke-dasharray: none; stroke-linecap: butt; stroke-dashoffset: 0; stroke-linejoin: miter; stroke-miterlimit: 4; fill: rgb(3,81,78); fill-rule: nonzero; opacity: 1;" vector-effect="non-scaling-stroke"  transform=" translate(-164.7, -49.8)" d="M 167.9 27 C 165.4 28.9 163.6 31.5 162.6 34.8 L 162.6 26.4 L 162.6 24.7 L 162.6 24.4 L 149.5 24.4 L 149.5 24.7 L 149.5 26.4 L 149.5 75.3 L 162.6 75.3 L 162.6 49 C 162.6 44.7 163.6 41.5 165.7 39.4 C 167.79999999999998 37.3 170.89999999999998 36.3 175.29999999999998 36.3 L 179.89999999999998 36.3 L 179.89999999999998 24.3 L 177.29999999999998 24.3 C 173.5 24.3 170.4 25.2 167.9 27 z" stroke-linecap="round" />
</g>
		<g transform="matrix(8.06 0 0 9.29 1714.67 -199.32)"  >
<path style="stroke: none; stroke-width: 1; stroke-dasharray: none; stroke-linecap: butt; stroke-dashoffset: 0; stroke-linejoin: miter; stroke-miterlimit: 4; fill: rgb(3,81,78); fill-rule: nonzero; opacity: 1;" vector-effect="non-scaling-stroke"  transform=" translate(-398.05, -20.7)" d="M 399.9 20.7 C 399.9 21.7 399.09999999999997 22.5 398.09999999999997 22.5 C 397.09999999999997 22.5 396.2 21.7 396.2 20.7 C 396.2 19.7 397 18.9 398.09999999999997 18.9 C 399.1 18.9 399.9 19.7 399.9 20.7 z M 396.7 20.7 C 396.7 21.5 397.3 22.099999999999998 398.09999999999997 22.099999999999998 C 398.9 22.099999999999998 399.49999999999994 21.499999999999996 399.49999999999994 20.7 C 399.49999999999994 19.9 398.8999999999999 19.2 398.09999999999997 19.2 C 397.3 19.3 396.7 19.9 396.7 20.7 z M 397.8 21.7 L 397.40000000000003 21.7 L 397.40000000000003 19.9 C 397.6 19.9 397.8 19.799999999999997 398.1 19.799999999999997 C 398.40000000000003 19.799999999999997 398.6 19.9 398.70000000000005 19.9 C 398.80000000000007 20 398.90000000000003 20.099999999999998 398.90000000000003 20.299999999999997 C 398.90000000000003 20.499999999999996 398.70000000000005 20.699999999999996 398.50000000000006 20.699999999999996 L 398.50000000000006 20.699999999999996 C 398.70000000000005 20.799999999999997 398.80000000000007 20.899999999999995 398.80000000000007 21.099999999999994 C 398.9000000000001 21.399999999999995 398.9000000000001 21.499999999999993 398.9000000000001 21.599999999999994 L 398.4000000000001 21.599999999999994 C 398.30000000000007 21.499999999999993 398.30000000000007 21.399999999999995 398.30000000000007 21.199999999999996 C 398.30000000000007 20.999999999999996 398.20000000000005 20.899999999999995 397.9000000000001 20.899999999999995 L 397.7000000000001 20.899999999999995 L 397.7000000000001 21.7 z M 397.8 20.6 L 398 20.6 C 398.2 20.6 398.4 20.5 398.4 20.3 C 398.4 20.1 398.29999999999995 20 398 20 C 397.9 20 397.8 20 397.8 20 L 397.8 20.6 z" stroke-linecap="round" />
</g>
</g>
</g>
<g transform="matrix(4.5 0 0 4.29 727.34 265.14)" id="6f55e159-90d6-41c9-b795-a2105b320058"  >
<circle style="stroke: rgb(0,0,0); stroke-width: 0; stroke-dasharray: none; stroke-linecap: butt; stroke-dashoffset: 0; stroke-linejoin: miter; stroke-miterlimit: 4; fill: rgb(255,255,255); fill-rule: nonzero; opacity: 1;" vector-effect="non-scaling-stroke"  cx="0" cy="0" r="35" />
</g>
<g transform="matrix(9.14 0 0 4.56 434.34 263.97)" id="69f85f96-82f7-415b-8872-cd56b88493d2"  >
<rect style="stroke: rgb(0,0,0); stroke-width: 0; stroke-dasharray: none; stroke-linecap: butt; stroke-dashoffset: 0; stroke-linejoin: miter; stroke-miterlimit: 4; fill: rgb(255,255,255); fill-rule: nonzero; opacity: 1;" vector-effect="non-scaling-stroke"  x="-33.085" y="-33.085" rx="0" ry="0" width="66.17" height="66.17" />
</g>
<g transform="matrix(4.57 0 0 4.59 292.68 832.73)" id="bccfbede-8698-42d7-9bad-2fe47e170c7c"  >
<circle style="stroke: rgb(0,0,0); stroke-width: 0; stroke-dasharray: none; stroke-linecap: butt; stroke-dashoffset: 0; stroke-linejoin: miter; stroke-miterlimit: 4; fill: rgb(255,255,255); fill-rule: nonzero; opacity: 1;" vector-effect="non-scaling-stroke"  cx="0" cy="0" r="35" />
</g>
<g transform="matrix(4.82 0 0 6.41 292.25 619.12)" id="69f85f96-82f7-415b-8872-cd56b88493d2"  >
<rect style="stroke: rgb(0,0,0); stroke-width: 0; stroke-dasharray: none; stroke-linecap: butt; stroke-dashoffset: 0; stroke-linejoin: miter; stroke-miterlimit: 4; fill: rgb(255,255,255); fill-rule: nonzero; opacity: 1;" vector-effect="non-scaling-stroke"  x="-33.085" y="-33.085" rx="0" ry="0" width="66.17" height="66.17" />
</g>
</svg>